<?xml version="1.0" encoding="UTF-8"?>
<svg id="Layer_2" data-name="Layer 2" xmlns="http://www.w3.org/2000/svg" viewBox="0 0 26.23 26.23">
  <defs>
    <style>
      .cls-1 {
        fill: #1c0802;
      }

      .cls-1, .cls-2 {
        stroke: #ff5722;
        stroke-miterlimit: 10;
        stroke-width: .23px;
      }

      .cls-2 {
        fill: #ff5722;
      }
    </style>
  </defs>
  <g id="design">
    <g>
      <path class="cls-2" d="M.11,3C.11,1.41,1.41,.11,3,.11H23.23c1.6,0,2.89,1.29,2.89,2.89V23.23c0,1.6-1.29,2.89-2.89,2.89H3c-1.6,0-2.89-1.29-2.89-2.89V3Z"/>
      <path class="cls-1" d="M2.28,2.28V23.95H23.95V2.28H2.28Zm10.61,15.89l-.55-2.1h-2.83l-.55,2.1h-2.19l3.21-10.27h1.9l3.23,10.27h-2.22Zm5.17,0h-2v-7.63h2v7.63Zm-.22-8.84c-.2,.2-.46,.3-.79,.3s-.6-.1-.79-.3-.29-.46-.29-.76,.1-.56,.3-.76,.46-.3,.79-.3,.59,.1,.79,.3,.3,.45,.3,.76c0,.31-.1,.56-.29,.76Z"/>
      <path class="cls-1" d="M9.96,14.34h1.92l-.96-3.66-.96,3.66Z"/>
    </g>
  </g>
</svg>