<?xml version="1.0" encoding="UTF-8"?>
<svg id="Layer_2" data-name="Layer 2" xmlns="http://www.w3.org/2000/svg" viewBox="0 0 26 26">
  <defs>
    <style>
      .cls-1 {
        fill: #03a9f4;
      }

      .cls-2 {
        fill: #020f16;
      }
    </style>
  </defs>
  <g id="design">
    <g>
      <path class="cls-1" d="M0,2.89C0,1.29,1.29,0,2.89,0H23.11c1.6,0,2.89,1.29,2.89,2.89V23.11c0,1.6-1.29,2.89-2.89,2.89H2.89c-1.6,0-2.89-1.29-2.89-2.89V2.89Z"/>
      <path class="cls-2" d="M10.12,9.51h-1.45v3.2h1.42c.4,0,.7-.13,.92-.39s.32-.63,.32-1.13-.11-.92-.33-1.22-.52-.46-.89-.46Z"/>
      <path class="cls-2" d="M2.17,2.17V23.83H23.83V2.17H2.17ZM12.54,13.57c-.6,.58-1.42,.87-2.48,.87h-1.38v3.61h-2.07V7.79h3.5c1.02,0,1.83,.32,2.43,.95s.91,1.45,.91,2.45-.3,1.8-.9,2.38Zm6.73,4.01c-.51,.41-1.19,.62-2.02,.62-.56,0-1.05-.11-1.48-.33s-.76-.52-1.01-.91-.36-.81-.36-1.26h1.9c.01,.35,.09,.61,.24,.78s.4,.26,.75,.26c.54,0,.8-.24,.8-.73,0-.17-.08-.33-.24-.47s-.52-.34-1.08-.58c-.82-.33-1.39-.68-1.7-1.04s-.46-.8-.46-1.33c0-.67,.24-1.22,.72-1.65s1.12-.65,1.91-.65c.84,0,1.51,.22,2.01,.65,.5,.43,.75,1.01,.75,1.74h-2c0-.62-.26-.93-.78-.93-.21,0-.38,.07-.52,.2s-.2,.32-.2,.55c0,.17,.08,.32,.23,.45s.5,.31,1.07,.55c.81,.3,1.39,.64,1.72,1.01s.5,.85,.5,1.44c0,.68-.26,1.23-.77,1.64Z"/>
    </g>
  </g>
</svg>