<?xml version="1.0" encoding="UTF-8"?>
<svg id="Layer_2" data-name="Layer 2" xmlns="http://www.w3.org/2000/svg" viewBox="0 0 17.33 26">
  <defs>
    <style>
      .cls-1 {
        fill: #29b6f6;
      }

      .cls-2 {
        fill: #7c4dff;
      }

      .cls-3 {
        fill: #e64a19;
      }

      .cls-4 {
        fill: #66bb6a;
      }

      .cls-5 {
        fill: #ff7043;
      }
    </style>
  </defs>
  <g id="design">
    <g>
      <path class="cls-3" d="M9.29,8.67H4.33C1.94,8.67,0,6.73,0,4.33H0C0,1.94,1.94,0,4.33,0h4.95V8.67Z"/>
      <path class="cls-2" d="M8.67,17.33H4.33c-2.39,0-4.33-1.94-4.33-4.33H0c0-2.39,1.94-4.33,4.33-4.33h4.33v8.67Z"/>
      <path class="cls-4" d="M4.33,26h0c-2.39,0-4.33-1.94-4.33-4.33H0c0-2.39,1.94-4.33,4.33-4.33h4.33v4.33c0,2.39-1.94,4.33-4.33,4.33Z"/>
      <path class="cls-5" d="M13,8.67h-4.33V0h4.33c2.39,0,4.33,1.94,4.33,4.33h0c0,2.39-1.94,4.33-4.33,4.33Z"/>
      <circle class="cls-1" cx="13" cy="13" r="4.33"/>
    </g>
  </g>
</svg>