<?xml version="1.0" encoding="UTF-8"?>
<svg id="Layer_2" data-name="Layer 2" xmlns="http://www.w3.org/2000/svg" viewBox="0 0 26 26">
  <defs>
    <style>
      .cls-1 {
        fill: #ffd600;
      }

      .cls-2 {
        fill: #000001;
      }
    </style>
  </defs>
  <g id="design">
    <g>
      <path class="cls-1" d="M0,26V0H26V26H0Z"/>
      <path class="cls-2" d="M17,19.46c.5,.81,1.04,1.59,2.19,1.59,.97,0,1.47-.48,1.47-1.14,0-.8-.52-1.08-1.59-1.54l-.58-.25c-1.68-.71-2.8-1.61-2.8-3.5,0-1.74,1.33-3.07,3.41-3.07,1.48,0,2.55,.51,3.32,1.86l-1.82,1.16c-.4-.71-.83-.99-1.5-.99s-1.12,.43-1.12,.99c0,.7,.43,.98,1.43,1.41l.58,.25c1.98,.84,3.1,1.71,3.1,3.65,0,2.09-1.65,3.23-3.86,3.23s-3.4-1.09-4.08-2.43l1.83-1.22Zm-8.37,.06c.37,.65,.92,1.16,1.72,1.16s1.2-.3,1.2-1.48v-7.65h2.41v8.02c0,2.43-1.41,3.54-3.47,3.54-1.86,0-3.2-1.26-3.75-2.43l1.89-1.16Z"/>
    </g>
  </g>
</svg>