<?xml version="1.0" encoding="UTF-8"?>
<svg id="Layer_2" data-name="Layer 2" xmlns="http://www.w3.org/2000/svg" viewBox="0 0 25.99 26">
  <g id="design">
    <path d="M15.87,0c-.06,0-.12,.03-.18,.06-.51,.25-1.08,1-1.2,1.15,0,0-.01,.02-.02,.03-.57,.85-.87,1.85-.89,2.89,0,.78,.15,1.55,.45,2.3,.72,1.73,2.22,3.16,4,3.83,.06,.02,.12,.04,.22,.08,0,0,.1,.03,.11,.03l.06,.02c.09,.03,.19,.06,.28,.08,.47,.09,.93,.15,1.35,.16,.07,0,.15,0,.22,0,3.24,0,4.49-2.29,4.91-3.05,.04-.07,.07-.13,.1-.17t0,0c.18-.27,.11-.64-.16-.82-.27-.18-.63-.11-.82,.16h0c-.86,1.27-2.34,1.66-4.39,1.15-.15-.04-.32-.09-.47-.15-.19-.07-.39-.15-.57-.24-.36-.18-.69-.39-1-.63-1.8-1.4-2.5-4.3-1.45-5.98,.14-.22,.12-.51-.06-.71-.13-.15-.33-.21-.52-.19Zm-5.23,1.18c-.13,0-.27,.04-.38,.13-.89,.73-1.81,1.92-1.85,1.97,0,0,0,.02-.02,.03-1.62,2.35-1.74,5.7-.31,8.53,.22,.45,.48,.87,.75,1.27l.08,.12c.23,.33,.48,.71,.81,1.01,.11,.13,.24,.25,.36,.37l.06,.06,.05,.05c.12,.12,.25,.24,.38,.35h0s.02,.02,.03,.03c.15,.13,.29,.25,.49,.41l.05,.04c.15,.12,.31,.24,.47,.35l.05,.03c.06,.04,.11,.07,.17,.11l.06,.04,.06,.04c.12,.08,.23,.15,.4,.24,.11,.06,.22,.13,.29,.17,.03,.02,.07,.04,.15,.08l.18,.09s.05,.02,.06,.03c.12,.06,.24,.12,.36,.17l.19,.08c.12,.05,.25,.1,.4,.16l.07,.03s.06,.03,.07,.03c.11,.04,.22,.08,.34,.12l.26,.09c.13,.04,.28,.09,.44,.12,.81,.13,1.59,.2,2.33,.2,.09,0,.18,0,.26,0,6.52-.14,8.22-5.69,8.24-5.74,.08-.28-.05-.58-.31-.7s-.58-.04-.74,.2c-1.65,2.41-4.78,3.43-7.96,2.59-.15-.04-.29-.08-.47-.14-.03,0-.06-.02-.1-.04-.1-.03-.21-.07-.32-.11l-.16-.06c-.09-.04-.19-.07-.3-.12l-.08-.03c-.14-.06-.28-.13-.4-.19l-.34-.18c-.08-.04-.14-.08-.25-.14l-.06-.03-.06-.03c-.09-.05-.17-.1-.25-.16l-.06-.03s-.05-.03-.06-.04c-.07-.04-.14-.09-.2-.13-.14-.1-.28-.21-.45-.34l-.06-.05c-1.52-1.22-2.65-2.84-3.18-4.58-.49-1.6-.13-3.69,.98-5.6,.14-.25,.09-.56-.13-.75-.11-.09-.24-.14-.38-.14Zm-6.5,1.77c-.14,0-.28,.05-.4,.15-1.13,1.01-1.97,2.33-2.07,2.48-2.41,3.52-1.95,8.98-.29,12.32,.03,.07,.07,.14,.1,.2l.02,.04c.03,.07,.06,.14,.08,.15,.02,.04,.05,.09,.06,.11,.03,.06,.06,.11,.11,.2l.19,.33s.06,.09,.06,.11c.04,.06,.08,.12,.12,.18l.09,.15s.06,.08,.07,.11c.09,.14,.18,.29,.29,.42,0,0,0,.01,.01,.02l.04,.05c.08,.12,.17,.24,.24,.33l.34,.43s.04,.05,.04,.05l.05,.06c.1,.12,.21,.25,.32,.37,.02,.02,.03,.03,.05,.05,.1,.11,.21,.23,.32,.34l.11,.1c.09,.09,.18,.18,.27,.27,0,0,.04,.04,.04,.04l.09,.09c.11,.11,.23,.21,.31,.29,0,0,.09,.08,.09,.08,.11,.1,.22,.19,.33,.28l.57,.45c.09,.07,.19,.14,.3,.22,.04,.03,.08,.06,.12,.08,.02,.01,.03,.03,.05,.03l.42,.28c.15,.1,.31,.2,.5,.31l.1,.06c.12,.07,.24,.14,.35,.2,.07,.04,.13,.07,.19,.1,.08,.04,.17,.09,.3,.16,.01,0,.11,.05,.12,.06,.13,.07,.27,.13,.44,.21,0,0,.06,.03,.06,.03,.16,.07,.31,.13,.51,.21,.03,.01,.06,.03,.07,.03,.14,.06,.29,.11,.42,.15,.01,0,.07,.03,.09,.03,.16,.06,.33,.11,.53,.17,.03,.01,.07,.02,.08,.02l.12,.04c.14,.04,.29,.09,.44,.12,1.1,.2,2.17,.3,3.19,.3h0c8.46,0,11.16-6.81,11.19-6.88,.1-.27,0-.58-.27-.73-.25-.14-.58-.07-.76,.16-2.17,2.86-6.27,3.92-10.96,2.84-.11-.03-.23-.06-.34-.09l-.22-.07c-.15-.05-.3-.1-.45-.15,0,0-.07-.03-.07-.03-.13-.04-.26-.09-.37-.14l-.13-.05c-.14-.06-.29-.12-.42-.18l-.08-.03c-.12-.06-.24-.11-.36-.17,0,0-.1-.05-.11-.05-.08-.04-.17-.09-.27-.14l-.48-.26s-.1-.06-.15-.09c-.15-.09-.3-.18-.44-.27-.03-.02-.06-.04-.12-.08-.1-.06-.2-.13-.35-.23l-.06-.04c-.1-.07-.2-.14-.28-.2-.05-.04-.1-.08-.18-.14-.07-.06-.15-.11-.22-.17l-.13-.11c-.11-.09-.21-.18-.32-.27-.01-.01-.03-.02-.04-.03-.12-.11-.24-.22-.38-.35l-.42-.42c-.1-.1-.2-.21-.32-.34-.11-.12-.21-.24-.34-.4l-.25-.3s-.06-.09-.1-.13c-.09-.12-.17-.23-.26-.35-2.3-3.17-2.9-9.78-1.11-12.2,.18-.24,.15-.58-.08-.79-.11-.1-.25-.15-.39-.15Z"/>
  </g>
</svg>